<mxfile host="app.diagrams.net" modified="2021-09-26T06:02:45.291Z" agent="5.0 (iPhone; CPU iPhone OS 14_7 like Mac OS X) AppleWebKit/605.1.15 (KHTML, like Gecko) CriOS/93.0.4577.78 Mobile/15E148 Safari/604.1" etag="fu15DUzwuboz0tlsDx6p" version="15.3.3" type="github">
  <diagram id="kgpKYQtTHZ0yAKxKKP6v" name="Page-1">
    <mxGraphModel dx="447" dy="1909" grid="1" gridSize="10" guides="1" tooltips="1" connect="1" arrows="1" fold="1" page="1" pageScale="1" pageWidth="850" pageHeight="1100" math="0" shadow="0">
      <root>
        <mxCell id="0" />
        <mxCell id="1" parent="0" />
        <mxCell id="3nuBFxr9cyL0pnOWT2aG-1" value="PERK UP WITH A LATTE" style="shape=table;childLayout=tableLayout;rowLines=0;columnLines=0;startSize=40;html=1;whiteSpace=wrap;collapsible=0;recursiveResize=0;expand=0;fontStyle=1" parent="1" vertex="1">
          <mxGeometry x="100" y="70" width="670" height="300" as="geometry" />
        </mxCell>
        <mxCell id="3nuBFxr9cyL0pnOWT2aG-2" value="" style="edgeStyle=orthogonalEdgeStyle;rounded=0;orthogonalLoop=1;jettySize=auto;html=1;" parent="3nuBFxr9cyL0pnOWT2aG-1" source="3nuBFxr9cyL0pnOWT2aG-7" target="3nuBFxr9cyL0pnOWT2aG-17" edge="1">
          <mxGeometry relative="1" as="geometry" />
        </mxCell>
        <mxCell id="3nuBFxr9cyL0pnOWT2aG-3" value="Customer" style="swimlane;horizontal=0;points=[[0,0.5],[1,0.5]];portConstraint=eastwest;startSize=40;html=1;whiteSpace=wrap;collapsible=0;recursiveResize=0;expand=0;" parent="3nuBFxr9cyL0pnOWT2aG-1" vertex="1">
          <mxGeometry y="40" width="670" height="180" as="geometry" />
        </mxCell>
        <mxCell id="3nuBFxr9cyL0pnOWT2aG-4" value="Feel tired" style="swimlane;connectable=0;startSize=40;html=1;whiteSpace=wrap;collapsible=0;recursiveResize=0;expand=0;" parent="3nuBFxr9cyL0pnOWT2aG-3" vertex="1">
          <mxGeometry x="40" width="130" height="180" as="geometry" />
        </mxCell>
        <mxCell id="3nuBFxr9cyL0pnOWT2aG-5" style="edgeStyle=orthogonalEdgeStyle;rounded=0;orthogonalLoop=1;jettySize=auto;html=1;" parent="3nuBFxr9cyL0pnOWT2aG-4" source="3nuBFxr9cyL0pnOWT2aG-6" target="3nuBFxr9cyL0pnOWT2aG-7" edge="1">
          <mxGeometry relative="1" as="geometry" />
        </mxCell>
        <mxCell id="3nuBFxr9cyL0pnOWT2aG-6" value="Start" style="rounded=1;whiteSpace=wrap;html=1;arcSize=50;" parent="3nuBFxr9cyL0pnOWT2aG-4" vertex="1">
          <mxGeometry x="20" y="60" width="90" height="40" as="geometry" />
        </mxCell>
        <mxCell id="3nuBFxr9cyL0pnOWT2aG-7" value="Find barista" style="rounded=0;whiteSpace=wrap;html=1;" parent="3nuBFxr9cyL0pnOWT2aG-4" vertex="1">
          <mxGeometry x="20" y="120" width="90" height="40" as="geometry" />
        </mxCell>
        <mxCell id="3nuBFxr9cyL0pnOWT2aG-8" value="Make transaction" style="swimlane;connectable=0;startSize=40;html=1;whiteSpace=wrap;collapsible=0;recursiveResize=0;expand=0;" parent="3nuBFxr9cyL0pnOWT2aG-3" vertex="1">
          <mxGeometry x="170" width="370" height="180" as="geometry" />
        </mxCell>
        <mxCell id="3nuBFxr9cyL0pnOWT2aG-9" value="Request latte" style="rounded=0;whiteSpace=wrap;html=1;" parent="3nuBFxr9cyL0pnOWT2aG-8" vertex="1">
          <mxGeometry x="20" y="120" width="90" height="40" as="geometry" />
        </mxCell>
        <mxCell id="3nuBFxr9cyL0pnOWT2aG-10" value="Buy latte" style="rounded=0;whiteSpace=wrap;html=1;" parent="3nuBFxr9cyL0pnOWT2aG-8" vertex="1">
          <mxGeometry x="150" y="120" width="90" height="40" as="geometry" />
        </mxCell>
        <mxCell id="3nuBFxr9cyL0pnOWT2aG-11" value="Feel perky" style="swimlane;connectable=0;startSize=40;html=1;whiteSpace=wrap;collapsible=0;recursiveResize=0;expand=0;" parent="3nuBFxr9cyL0pnOWT2aG-3" vertex="1">
          <mxGeometry x="540" width="130" height="180" as="geometry" />
        </mxCell>
        <mxCell id="3nuBFxr9cyL0pnOWT2aG-12" style="edgeStyle=orthogonalEdgeStyle;rounded=0;orthogonalLoop=1;jettySize=auto;html=1;" parent="3nuBFxr9cyL0pnOWT2aG-11" source="3nuBFxr9cyL0pnOWT2aG-13" target="3nuBFxr9cyL0pnOWT2aG-14" edge="1">
          <mxGeometry relative="1" as="geometry" />
        </mxCell>
        <mxCell id="3nuBFxr9cyL0pnOWT2aG-13" value="Drink latte" style="rounded=0;whiteSpace=wrap;html=1;" parent="3nuBFxr9cyL0pnOWT2aG-11" vertex="1">
          <mxGeometry x="20" y="60" width="90" height="40" as="geometry" />
        </mxCell>
        <mxCell id="3nuBFxr9cyL0pnOWT2aG-14" value="End" style="rounded=1;whiteSpace=wrap;html=1;arcSize=50;" parent="3nuBFxr9cyL0pnOWT2aG-11" vertex="1">
          <mxGeometry x="20" y="120" width="90" height="40" as="geometry" />
        </mxCell>
        <mxCell id="3nuBFxr9cyL0pnOWT2aG-15" value="Barista" style="swimlane;horizontal=0;points=[[0,0.5],[1,0.5]];portConstraint=eastwest;startSize=40;html=1;whiteSpace=wrap;collapsible=0;recursiveResize=0;expand=0;" parent="3nuBFxr9cyL0pnOWT2aG-1" vertex="1">
          <mxGeometry y="220" width="670" height="80" as="geometry" />
        </mxCell>
        <mxCell id="3nuBFxr9cyL0pnOWT2aG-16" value="" style="swimlane;connectable=0;startSize=0;html=1;whiteSpace=wrap;collapsible=0;recursiveResize=0;expand=0;" parent="3nuBFxr9cyL0pnOWT2aG-15" vertex="1">
          <mxGeometry x="40" width="130" height="80" as="geometry" />
        </mxCell>
        <mxCell id="3nuBFxr9cyL0pnOWT2aG-17" value="Greet customer" style="rounded=0;whiteSpace=wrap;html=1;" parent="3nuBFxr9cyL0pnOWT2aG-16" vertex="1">
          <mxGeometry x="20" y="20" width="90" height="40" as="geometry" />
        </mxCell>
        <mxCell id="3nuBFxr9cyL0pnOWT2aG-18" value="" style="swimlane;connectable=0;startSize=0;html=1;whiteSpace=wrap;collapsible=0;recursiveResize=0;expand=0;" parent="3nuBFxr9cyL0pnOWT2aG-15" vertex="1">
          <mxGeometry x="170" width="370" height="80" as="geometry" />
        </mxCell>
        <mxCell id="3nuBFxr9cyL0pnOWT2aG-19" value="" style="edgeStyle=orthogonalEdgeStyle;rounded=0;orthogonalLoop=1;jettySize=auto;html=1;" parent="3nuBFxr9cyL0pnOWT2aG-18" source="3nuBFxr9cyL0pnOWT2aG-20" target="3nuBFxr9cyL0pnOWT2aG-22" edge="1">
          <mxGeometry relative="1" as="geometry" />
        </mxCell>
        <mxCell id="3nuBFxr9cyL0pnOWT2aG-20" value="Accept&lt;br&gt;payment" style="rounded=0;whiteSpace=wrap;html=1;" parent="3nuBFxr9cyL0pnOWT2aG-18" vertex="1">
          <mxGeometry x="150" y="20" width="90" height="40" as="geometry" />
        </mxCell>
        <mxCell id="3nuBFxr9cyL0pnOWT2aG-21" value="Write details&lt;br&gt;on cup" style="shape=document;whiteSpace=wrap;html=1;boundedLbl=1;" parent="3nuBFxr9cyL0pnOWT2aG-18" vertex="1">
          <mxGeometry x="20" y="10" width="90" height="60" as="geometry" />
        </mxCell>
        <mxCell id="3nuBFxr9cyL0pnOWT2aG-22" value="Make latte" style="shape=process;whiteSpace=wrap;html=1;backgroundOutline=1;" parent="3nuBFxr9cyL0pnOWT2aG-18" vertex="1">
          <mxGeometry x="260" y="20" width="90" height="40" as="geometry" />
        </mxCell>
        <mxCell id="3nuBFxr9cyL0pnOWT2aG-23" value="" style="swimlane;connectable=0;startSize=0;html=1;whiteSpace=wrap;collapsible=0;recursiveResize=0;expand=0;" parent="3nuBFxr9cyL0pnOWT2aG-15" vertex="1">
          <mxGeometry x="540" width="130" height="80" as="geometry" />
        </mxCell>
        <mxCell id="3nuBFxr9cyL0pnOWT2aG-24" value="" style="edgeStyle=orthogonalEdgeStyle;rounded=0;orthogonalLoop=1;jettySize=auto;html=1;" parent="3nuBFxr9cyL0pnOWT2aG-1" source="3nuBFxr9cyL0pnOWT2aG-17" target="3nuBFxr9cyL0pnOWT2aG-9" edge="1">
          <mxGeometry relative="1" as="geometry">
            <Array as="points">
              <mxPoint x="160" y="260" />
              <mxPoint x="160" y="180" />
            </Array>
          </mxGeometry>
        </mxCell>
        <mxCell id="3nuBFxr9cyL0pnOWT2aG-25" value="" style="edgeStyle=orthogonalEdgeStyle;rounded=0;orthogonalLoop=1;jettySize=auto;html=1;" parent="3nuBFxr9cyL0pnOWT2aG-1" source="3nuBFxr9cyL0pnOWT2aG-9" target="3nuBFxr9cyL0pnOWT2aG-21" edge="1">
          <mxGeometry relative="1" as="geometry" />
        </mxCell>
        <mxCell id="3nuBFxr9cyL0pnOWT2aG-26" value="" style="edgeStyle=orthogonalEdgeStyle;rounded=0;orthogonalLoop=1;jettySize=auto;html=1;" parent="3nuBFxr9cyL0pnOWT2aG-1" source="3nuBFxr9cyL0pnOWT2aG-21" target="3nuBFxr9cyL0pnOWT2aG-10" edge="1">
          <mxGeometry relative="1" as="geometry">
            <Array as="points">
              <mxPoint x="300" y="260" />
              <mxPoint x="300" y="180" />
            </Array>
          </mxGeometry>
        </mxCell>
        <mxCell id="3nuBFxr9cyL0pnOWT2aG-27" value="" style="edgeStyle=orthogonalEdgeStyle;rounded=0;orthogonalLoop=1;jettySize=auto;html=1;" parent="3nuBFxr9cyL0pnOWT2aG-1" source="3nuBFxr9cyL0pnOWT2aG-10" target="3nuBFxr9cyL0pnOWT2aG-20" edge="1">
          <mxGeometry relative="1" as="geometry" />
        </mxCell>
        <mxCell id="3nuBFxr9cyL0pnOWT2aG-28" style="edgeStyle=orthogonalEdgeStyle;rounded=0;orthogonalLoop=1;jettySize=auto;html=1;" parent="3nuBFxr9cyL0pnOWT2aG-1" source="3nuBFxr9cyL0pnOWT2aG-22" target="3nuBFxr9cyL0pnOWT2aG-13" edge="1">
          <mxGeometry relative="1" as="geometry">
            <Array as="points">
              <mxPoint x="530" y="260" />
              <mxPoint x="530" y="120" />
            </Array>
          </mxGeometry>
        </mxCell>
        <mxCell id="OWpsZhFbi_TUfxrdfxFJ-1" value="&lt;!--[if IE]&gt;&lt;meta http-equiv=&quot;X-UA-Compatible&quot; content=&quot;IE=5&quot; &gt;&lt;![endif]--&gt;&#xa;&lt;!DOCTYPE html&gt;&#xa;&lt;html&gt;&#xa;&lt;head&gt;&#xa;    &lt;title&gt;Flowchart Maker &amp;amp; Online Diagram Software&lt;/title&gt;&#xa;    &lt;meta charset=&quot;utf-8&quot;/&gt;&#xa;    &lt;meta http-equiv=&quot;Content-Type&quot; content=&quot;text/html; charset=UTF-8&quot;&gt;&#xa;    &lt;meta name=&quot;Description&quot; content=&quot;diagrams.net is free online diagram software for making flowcharts, process diagrams, org charts, UML, ER and network diagrams&quot;&gt;&#xa;    &lt;meta name=&quot;Keywords&quot; content=&quot;diagram, online, flow chart, flowchart maker, uml, erd&quot;&gt;&#xa;    &lt;meta itemprop=&quot;name&quot; content=&quot;diagrams.net - free flowchart maker and diagrams online&quot;&gt;&#xa; &lt;meta itemprop=&quot;description&quot; content=&quot;diagrams.net is a free online diagramming application  and flowchart maker . You can use it to create UML, entity relationship,&#xa;  org charts, BPMN and BPM, database schema and networks. Also possible are telecommunication network, workflow, flowcharts, maps overlays and GIS, electronic &#xa;  circuit and social network diagrams.&quot;&gt;&#xa; &lt;meta itemprop=&quot;image&quot; content=&quot;https://lh4.googleusercontent.com/-cLKEldMbT_E/Tx8qXDuw6eI/AAAAAAAAAAs/Ke0pnlk8Gpg/w500-h344-k/BPMN%2Bdiagram%2Brc2f.png&quot;&gt;&#xa;    &lt;meta name=&quot;viewport&quot; content=&quot;width=device-width, initial-scale=1.0, maximum-scale=1.0, user-scalable=no&quot;&gt;&#xa; &lt;meta name=&quot;msapplication-config&quot; content=&quot;images/browserconfig.xml&quot;&gt;&#xa;    &lt;meta name=&quot;mobile-web-app-capable&quot; content=&quot;yes&quot;&gt;&#xa; &lt;meta name=&quot;theme-color&quot; content=&quot;#d89000&quot;&gt;&#xa; &lt;script type=&quot;text/javascript&quot;&gt;&#xa;  /**&#xa;   * URL Parameters and protocol description are here:&#xa;   *&#xa;   * https://desk.draw.io/support/solutions/articles/16000042546-what-url-parameters-are-supported&#xa;   *&#xa;   * Parameters for developers:&#xa;   *&#xa;   * - dev=1: For developers only&#xa;   * - test=1: For developers only&#xa;   * - export=URL for export: For developers only&#xa;   * - ignoremime=1: For developers only (see DriveClient.js). Use Cmd-S to override mime.&#xa;   * - createindex=1: For developers only (see etc/build/README)&#xa;   * - filesupport=0: For developers only (see Editor.js in core)&#xa;   * - savesidebar=1: For developers only (see Sidebar.js)&#xa;   * - pages=1: For developers only (see Pages.js)&#xa;   * - lic=email: For developers only (see LicenseServlet.java)&#xa;   * --&#xa;   * - networkshapes=1: For testing network shapes (temporary)&#xa;   */&#xa;  var urlParams = (function()&#xa;  {&#xa;   var result = new Object();&#xa;   var params = window.location.search.slice(1).split(&#39;&amp;&#39;);&#xa;   &#xa;   for (var i = 0; i &lt; params.length; i++)&#xa;   {&#xa;    idx = params[i].indexOf(&#39;=&#39;);&#xa;    &#xa;    if (idx &gt; 0)&#xa;    {&#xa;     result[params[i].substring(0, idx)] = params[i].substring(idx + 1);&#xa;    }&#xa;   }&#xa;   &#xa;   return result;&#xa;  })();&#xa;  &#xa;  // Forces CDN caches by passing URL parameters via URL hash&#xa;  if (window.location.hash != null &amp;&amp; window.location.hash.substring(0, 2) == &#39;#P&#39;)&#xa;  {&#xa;   try&#xa;   {&#xa;    urlParams = JSON.parse(decodeURIComponent(window.location.hash.substring(2)));&#xa;    &#xa;    if (urlParams.hash != null)&#xa;    {&#xa;     window.location.hash = urlParams.hash;&#xa;    }&#xa;   }&#xa;   catch (e)&#xa;   {&#xa;    // ignore&#xa;   }&#xa;  }&#xa;  &#xa;  // Global variable for desktop&#xa;  var mxIsElectron = window &amp;&amp; window.process &amp;&amp; window.process.type;&#xa;&#xa;  // Redirects page if required&#xa;  if (urlParams[&#39;dev&#39;] != &#39;1&#39;)&#xa;  {&#xa;   (function()&#xa;   {&#xa;    var proto = window.location.protocol;&#xa;    &#xa;    if (!mxIsElectron)&#xa;    {&#xa;     var host = window.location.host;&#xa;  &#xa;     // Redirects apex, drive and rt to www&#xa;     if (host === &#39;draw.io&#39; || host === &#39;rt.draw.io&#39; || host === &#39;drive.draw.io&#39;)&#xa;     {&#xa;      host = &#39;www.draw.io&#39;;&#xa;     }&#xa;     &#xa;     var href = proto + &#39;//&#39; + host + window.location.href.substring(&#xa;       window.location.protocol.length +&#xa;       window.location.host.length + 2);&#xa;  &#xa;     // Redirects if href changes&#xa;     if (href != window.location.href)&#xa;     {&#xa;      window.location.href = href;&#xa;     }&#xa;    }&#xa;   })();&#xa;  }&#xa;  &#xa;  /**&#xa;   * Adds meta tag to the page.&#xa;   */&#xa;  function mxmeta(name, content, httpEquiv)&#xa;  {&#xa;   try&#xa;   {&#xa;    var s = document.createElement(&#39;meta&#39;);&#xa;    &#xa;    if (name != null) &#xa;    {&#xa;     s.setAttribute(&#39;name&#39;, name);&#xa;    }&#xa;&#xa;    s.setAttribute(&#39;content&#39;, content);&#xa;    &#xa;    if (httpEquiv != null) &#xa;    {&#xa;     s.setAttribute(&#39;http-equiv&#39;, httpEquiv);&#xa;    }&#xa;&#xa;      var t = document.getElementsByTagName(&#39;meta&#39;)[0];&#xa;      t.parentNode.insertBefore(s, t);&#xa;   }&#xa;   catch (e)&#xa;   {&#xa;    // ignore&#xa;   }&#xa;  };&#xa;  &#xa;  /**&#xa;   * Synchronously adds scripts to the page.&#xa;   */&#xa;  function mxscript(src, onLoad, id, dataAppKey, noWrite)&#xa;  {&#xa;   var defer = onLoad == null &amp;&amp; !noWrite;&#xa;   &#xa;   if ((urlParams[&#39;dev&#39;] != &#39;1&#39; &amp;&amp; typeof document.createElement(&#39;canvas&#39;).getContext === &quot;function&quot;) ||&#xa;    onLoad != null || noWrite)&#xa;   {&#xa;    var s = document.createElement(&#39;script&#39;);&#xa;    s.setAttribute(&#39;type&#39;, &#39;text/javascript&#39;);&#xa;    s.setAttribute(&#39;defer&#39;, &#39;true&#39;);&#xa;    s.setAttribute(&#39;src&#39;, src);&#xa;&#xa;    if (id != null)&#xa;    {&#xa;     s.setAttribute(&#39;id&#39;, id);&#xa;    }&#xa;    &#xa;    if (dataAppKey != null)&#xa;    {&#xa;     s.setAttribute(&#39;data-app-key&#39;, dataAppKey);&#xa;    }&#xa;    &#xa;    if (onLoad != null)&#xa;    {&#xa;     var r = false;&#xa;    &#xa;     s.onload = s.onreadystatechange = function()&#xa;     {&#xa;      if (!r &amp;&amp; (!this.readyState || this.readyState == &#39;complete&#39;))&#xa;      {&#xa;            r = true;&#xa;            onLoad();&#xa;      }&#xa;       };&#xa;    }&#xa;      &#xa;      var t = document.getElementsByTagName(&#39;script&#39;)[0];&#xa;      &#xa;      if (t != null)&#xa;      {&#xa;       t.parentNode.insertBefore(s, t);&#xa;      }&#xa;   }&#xa;   else&#xa;   {&#xa;    document.write(&#39;&lt;script src=&quot;&#39; + src + &#39;&quot;&#39; + ((id != null) ? &#39; id=&quot;&#39; + id +&#39;&quot; &#39; : &#39;&#39;) +&#xa;     ((dataAppKey != null) ? &#39; data-app-key=&quot;&#39; + dataAppKey +&#39;&quot; &#39; : &#39;&#39;) + &#39;&gt;&lt;/scr&#39; + &#39;ipt&gt;&#39;);&#xa;   }&#xa;  };&#xa;&#xa;  /**&#xa;   * Asynchronously adds scripts to the page.&#xa;   */&#xa;  function mxinclude(src)&#xa;  {&#xa;   var g = document.createElement(&#39;script&#39;);&#xa;   g.type = &#39;text/javascript&#39;;&#xa;   g.async = true;&#xa;   g.src = src;&#xa;   &#xa;      var s = document.getElementsByTagName(&#39;script&#39;)[0];&#xa;      s.parentNode.insertBefore(g, s);&#xa;  };&#xa;  &#xa;  /**&#xa;   * Adds meta tags with application name (depends on offline URL parameter)&#xa;   */&#xa;  (function()&#xa;  {&#xa;   var name = &#39;diagrams.net&#39;;&#xa;   mxmeta(&#39;apple-mobile-web-app-title&#39;, name);&#xa;   mxmeta(&#39;application-name&#39;, name);&#xa;&#xa;   if (mxIsElectron)&#xa;   {&#xa;    mxmeta(null, &#39;default-src \&#39;self\&#39; \&#39;unsafe-inline\&#39;; connect-src \&#39;self\&#39; https://*.draw.io https://fonts.googleapis.com https://fonts.gstatic.com; img-src * data:; media-src *; font-src *; style-src-elem \&#39;self\&#39; \&#39;unsafe-inline\&#39; https://fonts.googleapis.com&#39;, &#39;Content-Security-Policy&#39;);&#xa;   }&#xa;  })();&#xa;  &#xa;  // Checks for local storage&#xa;  var isLocalStorage = false;&#xa;  &#xa;  try&#xa;  {&#xa;   isLocalStorage = urlParams[&#39;local&#39;] != &#39;1&#39; &amp;&amp; typeof(localStorage) != &#39;undefined&#39;;&#xa;  }&#xa;  catch (e)&#xa;  {&#xa;   // ignored&#xa;  }&#xa;&#xa;  var mxScriptsLoaded = false, mxWinLoaded = false;&#xa;  &#xa;  function checkAllLoaded()&#xa;  {&#xa;   if (mxScriptsLoaded &amp;&amp; mxWinLoaded)&#xa;   {&#xa;    App.main();    &#xa;   }&#xa;  };&#xa;  &#xa;  var t0 = new Date();&#xa;&#xa;  // Changes paths for local development environment&#xa;  if (urlParams[&#39;dev&#39;] == &#39;1&#39;)&#xa;  {&#xa;   // Used to request grapheditor/mxgraph sources in dev mode&#xa;   var mxDevUrl = document.location.protocol + &#39;//devhost.jgraph.com/drawio/src/main&#39;;&#xa;   &#xa;   // Used to request draw.io sources in dev mode&#xa;   var drawDevUrl = document.location.protocol + &#39;//devhost.jgraph.com/drawio/src/main/webapp/&#39;;&#xa;   var geBasePath = drawDevUrl + &#39;/js/grapheditor&#39;;&#xa;   var mxBasePath = mxDevUrl + &#39;/mxgraph&#39;;&#xa;   &#xa;   if (document.location.protocol == &#39;file:&#39;)&#xa;   {&#xa;    geBasePath = &#39;./js/grapheditor&#39;;&#xa;    mxBasePath = &#39;./mxgraph&#39;;&#xa;    drawDevUrl = &#39;./&#39;;&#xa;    &#xa;    // Forces includes for dev environment in node.js&#xa;    mxForceIncludes = true;&#xa;   }&#xa;&#xa;   mxscript(drawDevUrl + &#39;js/PreConfig.js&#39;);&#xa;   mxscript(drawDevUrl + &#39;js/diagramly/Init.js&#39;);&#xa;   mxscript(geBasePath + &#39;/Init.js&#39;);&#xa;   mxscript(mxBasePath + &#39;/mxClient.js&#39;);&#xa;   &#xa;   // Adds all JS code that depends on mxClient. This indirection via Devel.js is&#xa;   // required in some browsers to make sure mxClient.js (and the files that it&#xa;   // loads asynchronously) are available when the code loaded in Devel.js runs.&#xa;   mxscript(drawDevUrl + &#39;js/diagramly/Devel.js&#39;);&#xa;   &#xa;   // Electron&#xa;   if (mxIsElectron)&#xa;   {&#xa;    mxscript(&#39;js/diagramly/DesktopLibrary.js&#39;);&#xa;    mxscript(&#39;js/diagramly/ElectronApp.js&#39;);&#xa;   }&#xa;   &#xa;   mxscript(drawDevUrl + &#39;js/PostConfig.js&#39;);&#xa;  }&#xa;  else&#xa;  {&#xa;   (function()&#xa;   {&#xa;    var hostName = window.location.hostname;&#xa;    &#xa;    // Supported domains are *.draw.io and the packaged version in Quip&#xa;    var supportedDomain = (hostName.substring(hostName.length - 8, hostName.length) === &#39;.draw.io&#39;) ||&#xa;     (hostName.substring(hostName.length - 13, hostName.length) === &#39;.diagrams.net&#39;);&#xa;     (hostName.substring(hostName.length - 17, hostName.length) === &#39;.quipelements.com&#39;);&#xa;    &#xa;    function loadAppJS()&#xa;    {&#xa;     mxscript(&#39;js/app.min.js&#39;, function()&#xa;     {&#xa;      mxScriptsLoaded = true;&#xa;      checkAllLoaded();&#xa;      &#xa;      if (!supportedDomain)&#xa;      {&#xa;       mxscript(&#39;js/PostConfig.js&#39;);&#xa;      }&#xa;      &#xa;      // Electron&#xa;      if (mxIsElectron)&#xa;      {&#xa;       mxscript(&#39;js/diagramly/DesktopLibrary.js&#39;, function()&#xa;       {&#xa;        mxscript(&#39;js/diagramly/ElectronApp.js&#39;, function()&#xa;        {&#xa;         mxscript(&#39;js/extensions.min.js&#39;, function()&#xa;         {&#xa;          mxscript(&#39;js/stencils.min.js&#39;, function()&#xa;          {&#xa;           mxscript(&#39;js/shapes-14-6-5.min.js&#39;, function()&#xa;           {&#xa;            mxscript(&#39;js/PostConfig.js&#39;);&#xa;           });&#xa;          });&#xa;         });&#xa;        });&#xa;       });&#xa;      }&#xa;     });&#xa;    };&#xa;    &#xa;    if (!supportedDomain || mxIsElectron)&#xa;    {&#xa;     mxscript(&#39;js/PreConfig.js&#39;, loadAppJS);&#xa;    }&#xa;    else&#xa;    {&#xa;     loadAppJS();&#xa;    }&#xa;   })();&#xa;  }&#xa;&#xa;  // Adds basic error handling&#xa;  window.onerror = function()&#xa;  {&#xa;   var status = document.getElementById(&#39;geStatus&#39;);&#xa;   &#xa;   if (status != null)&#xa;   {&#xa;    status.innerHTML = &#39;Page could not be loaded. Please try refreshing.&#39;;&#xa;   }&#xa;  };&#xa; &lt;/script&gt;&#xa;    &lt;link rel=&quot;chrome-webstore-item&quot; href=&quot;https://chrome.google.com/webstore/detail/plgmlhohecdddhbmmkncjdmlhcmaachm&quot;&gt;&#xa; &lt;link rel=&quot;apple-touch-icon&quot; sizes=&quot;180x180&quot; href=&quot;images/apple-touch-icon.png&quot;&gt;&#xa; &lt;link rel=&quot;icon&quot; type=&quot;image/png&quot; sizes=&quot;32x32&quot; href=&quot;images/favicon-32x32.png&quot;&gt;&#xa; &lt;link rel=&quot;icon&quot; type=&quot;image/png&quot; sizes=&quot;16x16&quot; href=&quot;images/favicon-16x16.png&quot;&gt;&#xa; &lt;link rel=&quot;mask-icon&quot; href=&quot;images/safari-pinned-tab.svg&quot; color=&quot;#d89000&quot;&gt;&#xa; &lt;link rel=&quot;stylesheet&quot; type=&quot;text/css&quot; href=&quot;js/croppie/croppie.min.css&quot;&gt;&#xa;    &lt;link rel=&quot;stylesheet&quot; type=&quot;text/css&quot; href=&quot;styles/grapheditor.css&quot;&gt;&#xa;    &lt;link rel=&quot;preconnect&quot; href=&quot;https://storage.googleapis.com&quot;&gt;&#xa;    &lt;link rel=&quot;canonical&quot; href=&quot;https://app.diagrams.net&quot;&gt;&#xa; &lt;link rel=&quot;manifest&quot; href=&quot;images/manifest.json&quot;&gt;&#xa; &lt;link rel=&quot;shortcut icon&quot; href=&quot;favicon.ico&quot;&gt;&#xa; &lt;style type=&quot;text/css&quot;&gt;&#xa;  body { overflow:hidden; }&#xa;  div.picker { z-index: 10007; }&#xa;  .geSidebarContainer .geTitle input {&#xa;   font-size:8pt;&#xa;   color:#606060;&#xa;  }&#xa;  .geBlock {&#xa;   z-index:-3;&#xa;   margin:100px;&#xa;   margin-top:40px;&#xa;   margin-bottom:30px;&#xa;   padding:20px;&#xa;   text-align:center;&#xa;   min-width:50%;&#xa;  }&#xa;  .geBlock h1, .geBlock h2 {&#xa;   margin-top:0px;&#xa;   padding-top:0px;&#xa;  }&#xa;  .geEditor *:not(.geScrollable)::-webkit-scrollbar {&#xa;      width:14px;&#xa;      height:14px;&#xa;  }&#xa;  .geEditor ::-webkit-scrollbar-track {&#xa;   background-clip:padding-box;&#xa;   border:solid transparent;&#xa;   border-width:1px;&#xa;  }&#xa;  .geEditor ::-webkit-scrollbar-corner {&#xa;   background-color:transparent;&#xa;  }&#xa;  .geEditor ::-webkit-scrollbar-thumb {&#xa;   background-color:rgba(0,0,0,.1);&#xa;   background-clip:padding-box;&#xa;   border:solid transparent;&#xa;   border-radius:10px;&#xa;  }&#xa;  .geEditor ::-webkit-scrollbar-thumb:hover {&#xa;   background-color:rgba(0,0,0,.4);&#xa;  }&#xa;  .geTemplate {&#xa;   border:1px solid transparent;&#xa;   display:inline-block;&#xa;   _display:inline;&#xa;   vertical-align:top;&#xa;   border-radius:3px;&#xa;   overflow:hidden;&#xa;   font-size:14pt;&#xa;   cursor:pointer;&#xa;   margin:5px;&#xa;  }&#xa; &lt;/style&gt;&#xa; &lt;!-- Workaround for binary XHR in IE 9/10, see App.loadUrl --&gt;&#xa; &lt;!--[if (IE 9)|(IE 10)]&gt;&lt;!--&gt;&#xa;  &lt;script type=&quot;text/vbscript&quot;&gt;&#xa;   Function mxUtilsBinaryToArray(Binary)&#xa;    Dim i&#xa;    ReDim byteArray(LenB(Binary))&#xa;    For i = 1 To LenB(Binary)&#xa;     byteArray(i-1) = AscB(MidB(Binary, i, 1))&#xa;    Next&#xa;    mxUtilsBinaryToArray = byteArray&#xa;   End Function&#xa;  &lt;/script&gt;&#xa; &lt;!--&lt;![endif]--&gt;&#xa;&lt;/head&gt;&#xa;&lt;body class=&quot;geEditor&quot;&gt;&#xa;&lt;div id=&quot;geInfo&quot;&gt;&#xa; &lt;div class=&quot;geBlock&quot;&gt;&#xa;  &lt;h1&gt;Flowchart Maker and Online Diagram Software&lt;/h1&gt;&#xa;  &lt;p&gt;&#xa;   diagrams.net (formerly draw.io) is free online diagram software. You can use it as a flowchart maker, network diagram software, to create UML online, as an ER diagram tool, &#xa;   to design database schema, to build BPMN online, as a circuit diagram maker, and more. draw.io can import .vsdx, Gliffy&amp;trade; and Lucidchart&amp;trade; files .&#xa;  &lt;/p&gt;&#xa;  &lt;h2 id=&quot;geStatus&quot;&gt;Loading...&lt;/h2&gt;&#xa;  &lt;p&gt;&#xa;   Please ensure JavaScript is enabled.&#xa;  &lt;/p&gt;&#xa; &lt;/div&gt;&#xa;&lt;/div&gt;&#xa;&lt;script type=&quot;text/javascript&quot;&gt;&#xa;/**&#xa; * Main&#xa; */&#xa;if (navigator.userAgent != null &amp;&amp; navigator.userAgent.toLowerCase().&#xa; indexOf(&#39; electron/&#39;) &gt;= 0 &amp;&amp; typeof process !== &#39;undefined&#39; &amp;&amp; process.versions.electron &lt; 5)&#xa;{&#xa; // Redirects old Electron app to latest version&#xa; var div = document.getElementById(&#39;geInfo&#39;);&#xa; &#xa; if (div != null)&#xa; {&#xa;  div.innerHTML = &#39;&lt;center&gt;&lt;h2&gt;You are using an out of date version of this app.&lt;br&gt;Please download the latest version &#39; +&#xa;   &#39;&lt;a href=&quot;https://github.com/jgraph/drawio-desktop/releases/latest&quot; target=&quot;_blank&quot;&gt;here&lt;/a&gt;.&lt;/h2&gt;&lt;/center&gt;&#39;;&#xa; }&#xa;}&#xa;else&#xa;{&#xa; if (urlParams[&#39;dev&#39;] != &#39;1&#39; &amp;&amp; typeof document.createElement(&#39;canvas&#39;).getContext === &quot;function&quot;)&#xa; {&#xa;  window.addEventListener(&#39;load&#39;, function()&#xa;  {&#xa;   mxWinLoaded = true;&#xa;   checkAllLoaded();&#xa;  });&#xa; }&#xa; else&#xa; {&#xa;  App.main();&#xa; }&#xa;}&#xa;&lt;/script&gt;&#xa;&lt;/body&gt;&#xa;&lt;/html&gt;" style="text;whiteSpace=wrap;html=1;fontSize=18;fontFamily=Architects Daughter;" vertex="1" parent="1">
          <mxGeometry x="270" y="-170" width="550" height="1630" as="geometry" />
        </mxCell>
      </root>
    </mxGraphModel>
  </diagram>
</mxfile>
